<?xml version="1.0" encoding="UTF-8"?>
<svg width="58px" height="60px" viewBox="0 0 58 60" version="1.1" xmlns="http://www.w3.org/2000/svg" xmlns:xlink="http://www.w3.org/1999/xlink">
    <!-- Generator: sketchtool 51.3 (57544) - http://www.bohemiancoding.com/sketch -->
    <title>7730FF65-181E-408E-8DF9-0B66D3415392</title>
    <desc>Created with sketchtool.</desc>
    <defs>
        <polygon id="path-1" points="0.158281217 0.019 45.1543624 0.019 45.1543624 37.8617 0.158281217 37.8617"></polygon>
        <path d="M36.966,0.886 C35.037,1.212 33.198,1.944 31.573,3.032 C29.211,4.587 27.196,6.613 25.654,8.984 C25.47,8.775 25.271,8.578 25.061,8.395 C23.29,7.027 21.001,6.521 18.818,7.014 C18.736,7.027 18.656,7.05 18.573,7.063 C18.508,6.997 18.446,6.925 18.374,6.864 C18.171,6.674 17.955,6.497 17.728,6.336 C16.634,5.563 15.345,5.113 14.008,5.036 C13.277,5.01 12.545,5.04 11.819,5.13 L11.719,5.136 C11.646,5.136 11.57,5.145 11.497,5.151 L11.226,5.174 C10.332,5.257 9.635,5.33 9.126,5.391 C8.593,5.459 8.169,5.516 7.856,5.565 C6.712,5.736 5.612,6.129 4.619,6.72 C3.739,7.262 2.947,7.936 2.272,8.719 C2.248,8.747 2.224,8.775 2.201,8.803 C0.849,10.262 0.068,12.158 0,14.146 C0.003,15.705 0.547,17.216 1.541,18.419 C1.025,19.882 0.733,21.415 0.673,22.965 C0.653,26.831 3.772,29.98 7.637,30 L7.707,30 C8.077,30 13.128,27.145 26.125,24.862 C26.706,26.085 29.807,27.796 34.536,27.369 C39.264,26.942 42.315,24.533 42.684,23.927 C43.31,24.03 43.942,24.083 44.574,24.086 C45.197,24.085 45.819,24.037 46.435,23.94 C47.908,23.694 49.325,23.182 50.615,22.426 C51.866,21.718 53.002,20.821 53.982,19.769 C54.927,18.723 55.664,17.505 56.154,16.183 L56.243,15.951 C56.756,14.767 57.029,13.491 57.043,12.202 C57.042,11.212 56.885,10.232 56.582,9.292 C55.818,7.227 54.497,5.417 52.763,4.059 C50.965,2.754 48.705,2.254 46.525,2.679 C45.804,2.794 45.095,2.977 44.41,3.224 C44.199,2.99 43.975,2.77 43.737,2.564 C42.274,1.362 40.452,0.721 38.592,0.721 C38.05,0.721 37.506,0.775 36.966,0.886" id="path-3"></path>
        <linearGradient x1="0%" y1="49.9994539%" x2="99.9999988%" y2="49.9994539%" id="linearGradient-5">
            <stop stop-color="#FF7C00" offset="0%"></stop>
            <stop stop-color="#F78900" offset="100%"></stop>
        </linearGradient>
    </defs>
    <g id="Login" stroke="none" stroke-width="1" fill="none" fill-rule="evenodd">
        <g id="Login---background" transform="translate(-238.000000, -55.000000)">
            <g id="to-go-logo" transform="translate(238.000000, 55.000000)">
                <g id="Group-6" transform="translate(6.000000, 0.981300)">
                    <g id="Group-3">
                        <mask id="mask-2" fill="white">
                            <use xlink:href="#path-1"></use>
                        </mask>
                        <g id="Clip-2"></g>
                        <path d="M28.9346,34.0567 C22.1416,34.0617 16.6306,28.5597 16.6246,21.7667 C16.6196,14.9737 22.1226,9.4617 28.9146,9.4567 C32.8656,9.4537 36.5766,11.3477 38.8906,14.5477 L35.0036,17.0257 C32.3876,13.6727 27.5486,13.0767 24.1966,15.6927 C20.8436,18.3087 20.2466,23.1477 22.8636,26.4997 C25.4796,29.8527 30.3186,30.4497 33.6706,27.8327 C34.6756,27.0487 35.4696,26.0277 35.9836,24.8607 L29.7386,24.8607 L29.7386,20.2607 L41.1376,20.2607 C41.9616,27.0037 37.1636,33.1377 30.4206,33.9617 C29.9286,34.0217 29.4336,34.0527 28.9376,34.0527 L28.9346,34.0567 Z M28.9346,5.6567 C28.6676,5.6567 28.4046,5.6627 28.1416,5.6767 C25.3356,0.4527 18.8276,-1.5063 13.6036,1.2987 C10.1216,3.1697 7.9486,6.8027 7.9476,10.7557 L7.9476,11.0377 C0.9606,14.5637 -1.8454,23.0877 1.6816,30.0757 C4.0906,34.8497 8.9826,37.8607 14.3306,37.8617 L29.6366,37.8617 L29.6366,37.8457 C38.5226,37.5237 45.4656,30.0587 45.1436,21.1727 C44.8286,12.4657 37.6426,5.5897 28.9296,5.6567 L28.9346,5.6567 Z" id="Fill-1" fill="#FFFFFF" mask="url(#mask-2)"></path>
                    </g>
                </g>
                <g id="Group-9" transform="translate(0.000000, 29.981300)">
                    <mask id="mask-4" fill="white">
                        <use xlink:href="#path-3"></use>
                    </mask>
                    <g id="Clip-8"></g>
                    <path d="M36.966,0.886 C35.037,1.212 33.198,1.944 31.573,3.032 C29.211,4.587 27.196,6.613 25.654,8.984 C25.47,8.775 25.271,8.578 25.061,8.395 C23.29,7.027 21.001,6.521 18.818,7.014 C18.736,7.027 18.656,7.05 18.573,7.063 C18.508,6.997 18.446,6.925 18.374,6.864 C18.171,6.674 17.955,6.497 17.728,6.336 C16.634,5.563 15.345,5.113 14.008,5.036 C13.277,5.01 12.545,5.04 11.819,5.13 L11.719,5.136 C11.646,5.136 11.57,5.145 11.497,5.151 L11.226,5.174 C10.332,5.257 9.635,5.33 9.126,5.391 C8.593,5.459 8.169,5.516 7.856,5.565 C6.712,5.736 5.612,6.129 4.619,6.72 C3.739,7.262 2.947,7.936 2.272,8.719 C2.248,8.747 2.224,8.775 2.201,8.803 C0.849,10.262 0.068,12.158 0,14.146 C0.003,15.705 0.547,17.216 1.541,18.419 C1.025,19.882 0.733,21.415 0.673,22.965 C0.653,26.831 3.772,29.98 7.637,30 L7.707,30 C8.077,30 13.128,27.145 26.125,24.862 C26.706,26.085 29.807,27.796 34.536,27.369 C39.264,26.942 42.315,24.533 42.684,23.927 C43.31,24.03 43.942,24.083 44.574,24.086 C45.197,24.085 45.819,24.037 46.435,23.94 C47.908,23.694 49.325,23.182 50.615,22.426 C51.866,21.718 53.002,20.821 53.982,19.769 C54.927,18.723 55.664,17.505 56.154,16.183 L56.243,15.951 C56.756,14.767 57.029,13.491 57.043,12.202 C57.042,11.212 56.885,10.232 56.582,9.292 C55.818,7.227 54.497,5.417 52.763,4.059 C50.965,2.754 48.705,2.254 46.525,2.679 C45.804,2.794 45.095,2.977 44.41,3.224 C44.199,2.99 43.975,2.77 43.737,2.564 C42.274,1.362 40.452,0.721 38.592,0.721 C38.05,0.721 37.506,0.775 36.966,0.886" id="Fill-7" fill="url(#linearGradient-5)" mask="url(#mask-4)"></path>
                </g>
                <g id="Group-24" transform="translate(5.000000, 34.981300)" fill="#FFFFFF">
                    <path d="M6.6841,11.4239 L6.5931,11.8239 C6.5621,11.9579 6.5341,12.0749 6.5101,12.1699 C6.4861,12.2649 6.4661,12.3489 6.4501,12.4199 C6.4341,12.4909 6.4181,12.5629 6.4001,12.6369 C6.1661,13.8669 5.8081,15.0709 5.3301,16.2289 C5.1851,16.4729 4.9961,16.6859 4.7701,16.8579 C4.2401,17.3349 3.6071,17.6839 2.9211,17.8769 C2.4211,17.9829 1.9291,17.6639 1.8231,17.1629 C1.8061,17.0839 1.8001,17.0039 1.8041,16.9229 C1.9251,15.7789 2.1901,14.6549 2.5941,13.5789 C2.7551,13.0559 2.9001,12.5999 3.0331,12.2119 C3.1661,11.8239 3.3261,11.3839 3.5141,10.8909 C3.7021,10.3979 3.9141,9.8749 4.1521,9.3169 C4.3901,8.7589 4.5581,8.3669 4.6521,8.1389 C3.8741,8.3729 3.0811,8.5539 2.2791,8.6819 C1.5121,8.8019 1.1281,8.6079 1.1261,8.0989 C1.2221,7.5769 1.4821,7.1009 1.8691,6.7379 C2.1371,6.4179 2.4511,6.1399 2.8001,5.9119 C3.1201,5.7279 3.4721,5.6089 3.8371,5.5589 C4.1001,5.5169 4.4571,5.4689 4.9121,5.4129 C5.3671,5.3569 5.9991,5.2919 6.8121,5.2179 L7.0741,5.1949 L7.3261,5.1819 C7.7761,5.1229 8.2291,5.0929 8.6831,5.0929 C8.8841,5.1009 9.0791,5.1659 9.2451,5.2799 C9.3681,5.3919 9.4361,5.5519 9.4331,5.7189 C9.4311,5.9239 9.3921,6.1279 9.3191,6.3189 C9.2601,6.4989 9.1631,6.6639 9.0361,6.8029 C8.6511,7.1089 8.2011,7.3219 7.7201,7.4249 C7.6521,7.4349 7.5851,7.4509 7.5201,7.4729 L7.3331,7.5379 C7.4741,7.6389 7.5581,7.8009 7.5601,7.9739 C7.5141,8.3539 7.4281,8.7289 7.3031,9.0909 C7.2471,9.2359 7.1161,9.7039 6.9091,10.4959 L6.7711,11.0519 L6.6841,11.4239 Z" id="Fill-10"></path>
                    <path d="M14.7959,7.0039 C15.7249,6.8579 16.1899,6.8889 16.1899,7.0959 C16.1899,7.3329 15.9819,7.4929 15.5649,7.5759 C15.0569,7.6869 14.5769,7.9009 14.1559,8.2059 C13.7069,8.5309 13.3149,8.9279 12.9959,9.3819 C12.6589,9.8559 12.3939,10.3769 12.2079,10.9279 C12.0209,11.4799 11.9269,12.0589 11.9299,12.6419 C11.8969,13.1799 12.0699,13.7109 12.4139,14.1259 C12.7289,14.4709 13.2029,14.6229 13.6599,14.5259 C14.1809,14.4199 14.6319,14.0969 14.9009,13.6389 C15.2489,13.1409 15.4329,12.5459 15.4269,11.9389 C15.4329,11.5389 15.3149,11.1469 15.0899,10.8159 C14.8659,10.4069 14.5279,10.0729 14.1179,9.8519 C13.9369,9.7439 13.8459,9.6609 13.8459,9.6009 C13.8459,9.5179 13.9719,9.3699 14.2279,9.1589 C14.5259,8.9219 14.8489,8.7169 15.1889,8.5469 C15.4699,8.3919 15.7739,8.2809 16.0889,8.2189 C16.3579,8.1739 16.6349,8.2029 16.8889,8.3029 C17.1499,8.4079 17.3799,8.5769 17.5599,8.7929 C17.7619,9.0339 17.9139,9.3129 18.0079,9.6129 C18.1149,9.9509 18.1689,10.3029 18.1659,10.6579 C18.1619,11.2369 18.0369,11.8089 17.7999,12.3369 C17.5819,12.9409 17.2509,13.4989 16.8239,13.9789 C16.2739,14.5629 15.6369,15.0599 14.9359,15.4519 C14.2869,15.8389 13.5739,16.1059 12.8299,16.2389 C12.1899,16.3409 11.5369,16.3349 10.8979,16.2209 C10.3489,16.1449 9.8259,15.9369 9.3749,15.6149 C8.8379,15.1359 8.5579,14.4319 8.6189,13.7149 C8.6299,12.9699 8.8089,12.2369 9.1429,11.5719 C9.5109,10.8029 9.9959,10.0939 10.5789,9.4719 C11.1639,8.8329 11.8379,8.2819 12.5789,7.8339 C13.2579,7.4169 14.0109,7.1349 14.7959,7.0039" id="Fill-12"></path>
                    <path d="M20.2569,12.3267 C19.9819,12.3877 19.6949,12.3367 19.4569,12.1847 C19.2509,12.0407 19.1329,11.8007 19.1449,11.5497 C19.1579,11.3147 19.2089,11.0837 19.2959,10.8647 C19.3619,10.6437 19.4709,10.4377 19.6159,10.2587 C20.1369,9.8647 20.7639,9.6327 21.4159,9.5937 C21.8739,9.4957 22.3449,9.4797 22.8089,9.5447 C23.0619,9.5797 23.2449,9.8027 23.2309,10.0567 C23.2349,10.3627 23.1449,10.6617 22.9729,10.9147 C22.7399,11.2107 22.4399,11.4467 22.0969,11.6027 C21.5199,11.9287 20.9009,12.1717 20.2569,12.3267" id="Fill-14"></path>
                    <path d="M30.7197,11.8174 C30.2037,12.3864 29.6197,12.8904 28.9817,13.3174 C28.4887,13.6424 27.9337,13.8604 27.3517,13.9584 C26.7847,14.0714 26.1977,14.0084 25.6667,13.7784 C25.1897,13.5464 24.8077,13.1524 24.5907,12.6674 C24.3247,12.0654 24.1967,11.4114 24.2137,10.7544 C24.2387,9.6954 24.5007,8.6564 24.9827,7.7134 C25.5287,6.5834 26.2307,5.5354 27.0697,4.6004 C27.9057,3.6444 28.8677,2.8054 29.9297,2.1084 C30.8367,1.4884 31.8657,1.0674 32.9477,0.8724 C34.5177,0.6274 35.3057,1.1584 35.3107,2.4664 C35.3037,3.0124 35.1567,3.5464 34.8827,4.0184 C34.5977,4.5404 34.2057,4.9954 33.7337,5.3544 C33.2897,5.7034 32.7667,5.9354 32.2107,6.0274 C31.9927,6.0614 31.8827,6.0054 31.8817,5.8554 C31.9057,5.7454 31.9427,5.6374 31.9937,5.5364 C32.1617,5.1924 32.2887,4.8294 32.3717,4.4554 C32.4537,4.0534 32.5027,3.6444 32.5167,3.2334 C32.5167,2.7354 32.4527,2.4964 32.3257,2.5154 C31.8567,2.6684 31.4337,2.9394 31.0997,3.3024 C30.6077,3.7444 30.1737,4.2494 29.8107,4.8024 C29.4827,5.3054 29.2007,5.8374 28.9707,6.3914 C28.7207,6.9734 28.5197,7.5754 28.3707,8.1914 C28.2347,8.7194 28.1627,9.2614 28.1567,9.8064 C28.1367,10.1904 28.2467,10.5694 28.4697,10.8814 C28.6547,11.1344 28.9687,11.2564 29.2757,11.1944 C29.8417,11.1064 30.4787,10.3224 31.1827,8.8434 C31.4067,8.4294 31.5567,8.1654 31.6327,8.0494 C31.7227,7.9204 31.8347,7.8074 31.9637,7.7164 C32.4187,7.3844 32.9077,7.1014 33.4227,6.8714 C33.8557,6.6514 34.3157,6.4884 34.7897,6.3854 C35.1697,6.3264 35.3617,6.4764 35.3637,6.8384 C35.3637,6.8674 35.3447,7.0014 35.3087,7.2374 C34.9067,8.9454 34.3767,10.6214 33.7237,12.2504 C33.2847,13.4534 32.6727,14.5854 31.9057,15.6094 C31.5637,15.9814 31.1507,16.2814 30.6927,16.4914 C30.1747,16.7544 29.6197,16.9334 29.0477,17.0244 C28.5807,17.0974 28.1067,17.0974 27.6397,17.0244 C27.2277,16.9724 26.8277,16.8414 26.4647,16.6394 C26.1577,16.4564 26.0037,16.2524 26.0027,16.0274 C26.0287,15.8214 26.1187,15.6304 26.2627,15.4804 C26.4727,15.2284 26.7097,15.0004 26.9707,14.8014 C27.2447,14.5454 27.5647,14.3414 27.9127,14.2014 C28.0747,14.1764 28.3037,14.3094 28.5977,14.6014 C28.9327,14.9214 29.3157,15.1894 29.7327,15.3924 C29.9797,14.7784 30.1887,14.1494 30.3557,13.5084 C30.5177,12.9544 30.6397,12.3894 30.7197,11.8174" id="Fill-16"></path>
                    <path d="M42.501,2.67 C43.43,2.524 43.895,2.556 43.895,2.763 C43.895,2.999 43.687,3.163 43.27,3.243 C42.762,3.353 42.281,3.567 41.86,3.872 C41.411,4.197 41.02,4.595 40.701,5.049 C40.364,5.523 40.099,6.043 39.913,6.594 C39.726,7.146 39.632,7.726 39.635,8.309 C39.602,8.847 39.774,9.377 40.119,9.792 C40.435,10.136 40.908,10.289 41.365,10.192 C41.886,10.086 42.338,9.763 42.606,9.304 C42.953,8.806 43.137,8.212 43.132,7.604 C43.178,7.179 43.104,6.75 42.919,6.364 C42.694,5.957 42.356,5.622 41.947,5.402 C41.766,5.294 41.675,5.211 41.675,5.151 C41.675,5.068 41.802,4.921 42.057,4.709 C42.355,4.472 42.678,4.267 43.018,4.097 C43.299,3.941 43.603,3.831 43.918,3.769 C44.188,3.724 44.464,3.753 44.718,3.853 C44.979,3.958 45.209,4.127 45.389,4.343 C45.591,4.584 45.743,4.862 45.837,5.162 C45.944,5.5 45.997,5.853 45.995,6.207 C45.946,6.831 45.779,7.439 45.504,8.001 C45.285,8.605 44.954,9.162 44.528,9.642 C43.977,10.226 43.341,10.723 42.64,11.116 C41.991,11.503 41.277,11.77 40.534,11.903 C39.894,12.004 39.24,11.998 38.602,11.885 C38.053,11.808 37.53,11.6 37.079,11.279 C36.542,10.8 36.262,10.096 36.323,9.379 C36.333,8.633 36.513,7.9 36.847,7.234 C37.215,6.464 37.699,5.756 38.283,5.134 C38.868,4.495 39.541,3.943 40.283,3.496 C40.962,3.08 41.715,2.799 42.501,2.67" id="Fill-18"></path>
                    <path d="M34.5547,16.0938 C34.4597,16.2308 34.3677,16.3578 34.2717,16.4738 C37.1247,16.2738 40.1197,16.1798 43.2457,16.2288 C40.6327,16.0638 37.6787,16.0058 34.5547,16.0938" id="Fill-20"></path>
                    <path d="M24.3848,16.8975 C17.9228,17.3435 11.5528,18.6805 5.4568,20.8695 C3.8068,21.4065 2.2168,22.1115 0.7108,22.9755 C8.3188,20.3595 16.1738,18.5275 24.1538,17.5075 C24.1468,17.4805 24.1418,17.4525 24.1398,17.4235 C24.1628,17.2265 24.2488,17.0425 24.3848,16.8975" id="Fill-22"></path>
                </g>
            </g>
        </g>
    </g>
</svg>