<?xml version="1.0" encoding="UTF-8"?>
<svg width="143px" height="29px" viewBox="0 0 143 29" version="1.1" xmlns="http://www.w3.org/2000/svg" xmlns:xlink="http://www.w3.org/1999/xlink">
    <!-- Generator: sketchtool 51.3 (57544) - http://www.bohemiancoding.com/sketch -->
    <title>C682A5E6-9B61-4B7F-AA36-257945EC5144</title>
    <desc>Created with sketchtool.</desc>
    <defs>
        <path d="M19.7279079,3.86684478 C19.5459837,3.86684478 19.3648176,3.87114021 19.1844094,3.87973107 C17.5874951,0.90631845 14.1733592,-0.600534339 10.9004032,0.223526841 C7.62744716,1.04758802 5.33392219,3.99150921 5.3354298,7.36661154 C5.3354298,7.43104303 5.3354298,7.49623253 5.3354298,7.559906 C1.32046126,9.58952399 -0.776902086,14.1092798 0.265391776,18.4856876 C1.30768564,22.8620953 5.21719996,25.9512414 9.71601289,25.9532005 L20.2130391,25.9532005 L20.2130391,25.9418302 C26.2119307,25.6786446 30.9010938,20.6702326 30.7691641,14.6670199 C30.6372344,8.66380731 25.73257,3.86623411 19.7279079,3.86684478 Z M19.7279079,23.3418302 C15.7450603,23.3420416 12.3051996,20.5554288 11.4787874,16.6592616 C10.6523752,12.7630944 12.6648046,8.82000173 16.3047889,7.20334165 C19.9447732,5.58668157 24.2195542,6.73737709 26.5561295,9.96282145 L23.89094,11.6615387 C22.4300228,9.78905781 19.898637,9.12251223 17.7050069,10.032705 C15.5113769,10.9428978 14.1954838,13.2057771 14.4893665,15.5624902 C14.7832492,17.9192033 16.6145658,19.7896247 18.9645446,20.1332284 C21.3145234,20.4768321 23.6046964,19.2090369 24.5610275,17.0351247 L20.2797447,17.0351247 L20.2797447,13.8832879 L28.0979371,13.8832879 C28.3924125,16.2805754 27.6445521,18.6890313 26.0440083,20.4978879 C24.4434645,22.3067446 22.1439719,23.3422584 19.7286659,23.3418302 L19.7279079,23.3418302 Z" id="path-1"></path>
    </defs>
    <g id="Login" stroke="none" stroke-width="1" fill="none" fill-rule="evenodd">
        <g id="Login-0904-Demo" transform="translate(-46.000000, -40.000000)">
            <g id="ic/Login/LOGO" transform="translate(46.000000, 40.000000)">
                <g>
                    <g id="EnGenius-Logo-01" transform="translate(40.000000, 0.000000)" fill="#FFFFFF" fill-rule="nonzero">
                        <path d="M0.127291667,7.42354167 L2.86541667,7.42354167 L11.1502083,7.42354167 L11.1502083,9.66875 L2.86541667,9.66875 L2.86541667,14.6547917 L10.9416667,14.6547917 L10.9416667,16.8214583 L2.86541667,16.8214583 L2.86541667,23.489375 L11.2233333,23.489375 L11.2233333,25.75625 L0.119166667,25.75625 L0.119166667,7.41 L0.127291667,7.42354167 Z M19.8060417,14.0102083 C22.4304167,14.0102083 24.505,15.2072917 24.4833333,18.614375 L24.4833333,18.7389583 L24.4833333,25.805 L21.9375,25.805 L21.9375,18.7416667 L21.9645833,18.7416667 C22.035,16.8322917 20.9489583,16.0089583 19.1425,16.0089583 C16.39625,16.0089583 16.209375,18.354375 16.0766667,18.744375 L16.0766667,25.8077083 L13.5416667,25.8077083 L13.5416667,14.503125 L16.07125,14.503125 L16.07125,15.7083333 C17.0152445,14.6316003 18.3768031,14.0129791 19.80875,14.0102083 L19.8060417,14.0102083 Z M64.8808333,13.9641667 C67.5079167,13.9641667 69.5825,15.16125 69.5608333,18.5683333 C69.5608333,18.6116667 69.5608333,18.6522917 69.5608333,18.695625 L69.5608333,25.7616667 L67.0095833,25.7616667 L67.0095833,18.6875 L67.0339583,18.6875 C67.104375,16.7916667 66.0183333,15.9547917 64.2145833,15.9547917 C61.4683333,15.9547917 61.2814583,18.3002083 61.1460417,18.6929167 L61.1460417,25.75625 L58.6191667,25.75625 L58.6191667,14.4489583 L61.1460417,14.4489583 L61.1460417,15.6514583 C62.0885528,14.5742768 63.4495253,13.9554735 64.8808333,13.9533333 L64.8808333,13.9641667 Z M36.5625,16.0685417 L41.8410417,16.0685417 C41.8396974,16.0559385 41.8396974,16.0432281 41.8410417,16.030625 L44.2785417,16.030625 L44.2785417,16.0604167 C44.07,22.53875 40.096875,25.845625 35.0485417,25.8483333 C30.0002083,25.8510417 25.8835417,21.5664583 25.8808333,16.315 C25.878125,11.0635417 29.7104167,6.91979167 35.0404167,6.77625 C38.4502083,6.68416667 41.3616667,7.85958333 42.965,10.41625 L41.2235417,11.895 C40.1402083,9.815 37.8029167,8.79666667 35.05125,9.010625 C30.9020833,9.33291667 28.2804167,12.244375 28.2804167,16.2039583 C28.2804167,20.1635417 31.3245833,23.3891667 35.05125,23.3891667 C38.1604167,23.3891667 40.616875,21.9022917 41.4997917,18.2839583 L36.5625,18.2839583 L36.5625,16.0685417 Z M47.8697917,18.4166667 L54.803125,18.4166667 C54.3725,16.5425 53.1997917,15.7083333 51.5016667,15.7083333 C49.8321976,15.7291125 48.365966,16.8224993 47.8697917,18.4166667 Z M57.1458333,20.1445833 L57.1458333,20.190625 L47.71,20.190625 C47.95375,22.124375 49.4839583,23.6572917 51.415,23.6545833 C52.9316667,23.6545833 54.624375,22.8041667 55.1741667,21.4554167 L57.370625,22.595625 C56.5825,24.6783333 53.7604167,25.87 51.2172917,25.87 C49.5949715,25.8650035 48.0414888,25.2138756 46.9004451,24.0606337 C45.7594014,22.9073918 45.1248289,21.3470732 45.1370833,19.7247917 C45.1370833,16.38 47.5745833,13.6120833 51.3175,13.6825 C55.0604167,13.7529167 57.5466667,15.90875 57.3597917,20.1120833 C57.360498,20.1192883 57.360498,20.126545 57.3597917,20.13375 L57.1377083,20.13375 L57.1458333,20.1445833 Z M72.515625,14.3866667 L75.25375,14.3866667 L75.25375,25.7616667 L72.52375,25.7616667 L72.52375,14.3866667 L72.515625,14.3866667 Z M73.8697917,9.65791667 C74.6065753,9.65797101 75.2046522,10.2537046 75.2075989,10.9904823 C75.2105457,11.7272601 74.6172532,12.3277586 73.8804936,12.3337064 C73.1437339,12.3396542 72.5408238,11.7488126 72.531875,11.0120833 C72.5267925,10.6542207 72.6655917,10.3092988 72.9171321,10.0547032 C73.1686726,9.8001076 73.5118937,9.65715462 73.8697917,9.65791667 Z M88.8929167,20.475 C89.106875,24.1745833 86.945625,25.7589583 83.47625,25.7589583 C79.82,25.7589583 78.3304167,23.9172917 78.0595833,21.425625 L78.0135417,20.548125 L78.0135417,14.2647917 L80.61625,14.2647917 L80.61625,15.851875 L80.640625,20.4939583 L80.640625,21.4852083 C80.640625,22.4466667 81.8377083,23.7358333 83.6197917,23.733125 C85.0374739,23.785074 86.231347,22.6831303 86.2929167,21.2658333 L86.2929167,14.0833333 L88.895625,14.0833333 L88.895625,20.475 L88.8929167,20.475 Z M94.9947917,13.65 C96.6197917,13.65 98.0227083,14.5085417 98.5914583,15.721875 L96.4247917,16.7510417 C96.2249661,16.163483 95.6900481,15.7548056 95.070625,15.7164583 C94.3177083,15.673125 93.6352083,16.2066667 93.6379167,16.9135417 C93.6379167,17.4795833 94.52625,17.964375 95.151875,18.143125 C95.5202083,18.289375 96.8472917,18.8229167 97.7275,19.264375 L97.7139583,19.264375 C98.8704167,19.8060417 99.6314583,20.791875 99.5420833,22.205625 C99.255,24.3425 97.4675,25.748125 95.005625,25.7508333 C92.9391667,25.7508333 91.1922917,24.635 90.6722917,23.1291667 L92.974375,22.173125 C93.228833,22.9074951 93.8610688,23.4464502 94.6264583,23.5814583 C95.6258333,23.79 96.5764583,23.5679167 96.8229167,22.3085417 C97.1722917,21.0329167 95.46875,21.0058333 94.469375,20.2935417 C93.7675809,20.0404842 93.0991396,19.7030805 92.47875,19.28875 C91.430625,18.7091667 91.154375,17.883125 91.154375,16.9189583 C91.170625,15.12875 92.8660417,13.6527083 94.9975,13.65 L94.9947917,13.65 Z" id="Shape"></path>
                        <path d="M73.8697917,0.124583333 C77.2150356,0.13299422 80.3957502,1.57689071 82.6041667,4.08958333 L81.989375,4.66645833 C79.9208384,2.28722304 76.9168258,0.929410286 73.7641708,0.948668703 C70.6115159,0.96792712 67.6243155,2.362338 65.585,4.76666667 L64.91875,4.265625 C67.1613228,1.66097379 70.4193009,0.151443971 73.85625,0.124583333 L73.8697917,0.124583333 Z M73.8697917,5.92583333 C75.4944061,5.9270726 76.9981135,6.78442258 77.8266667,8.181875 L77.22,8.701875 L77.1875,8.72354167 C76.5181832,7.49304932 75.2226154,6.73426721 73.8219848,6.75244247 C72.4213542,6.77061772 71.1459119,7.56276249 70.50875,8.81020833 L69.8614583,8.26854167 C70.675131,6.81870399 72.2072374,5.92014429 73.8697917,5.91770833 L73.8697917,5.92583333 Z M73.8697917,3.04416667 C71.341541,3.05246934 68.9650412,4.25175873 67.4564583,6.280625 L68.07125,6.77895833 C69.4402892,4.95071792 71.5884937,3.87160121 73.8725,3.86479167 C76.1000535,3.88021875 78.1878601,4.9527703 79.4977083,6.75458333 L80.1558333,6.19395833 C78.6645194,4.22337915 76.3410213,3.05912738 73.8697917,3.04416667 Z" id="Shape"></path>
                        <path d="M100.79875,13.5904167 C101.183258,13.5896959 101.552225,13.7421222 101.824114,14.0140109 C102.096003,14.2858997 102.248429,14.6548669 102.247708,15.039375 C102.248428,15.4234134 102.096373,15.7919689 101.82507,16.0637794 C101.553768,16.33559 101.185497,16.488334 100.801458,16.4883333 C100.41742,16.4890525 100.048864,16.3369977 99.7770539,16.0656952 C99.5052434,15.7943928 99.3524993,15.4261224 99.3525,15.0420833 C99.3539843,14.2435176 100.000188,13.5961033 100.79875,13.593125 L100.79875,13.5904167 Z M100.79875,13.8341667 C100.135422,13.8386121 99.5992031,14.3760389 99.59625,15.039375 C99.5992161,15.7037607 100.137073,16.2416173 100.801458,16.2445833 C101.12032,16.2415931 101.425431,16.1143018 101.651875,15.8897917 C101.877784,15.6633977 102.004443,15.3564933 102.003958,15.0366667 C102.002469,14.3716664 101.46375,13.8329477 100.79875,13.8314583 L100.79875,13.8341667 Z" id="Shape"></path>
                        <path d="M100.162292,15.884375 L100.162292,14.194375 L100.861042,14.194375 C100.970385,14.1898611 101.079628,14.2054671 101.183333,14.2404167 C101.258525,14.2720372 101.320643,14.3284207 101.359375,14.4002083 C101.403933,14.4775212 101.426417,14.565581 101.424375,14.6547917 C101.428579,14.7660663 101.389785,14.8746888 101.316042,14.958125 C101.227051,15.0497617 101.107586,15.1056406 100.980208,15.1152083 C101.025218,15.1376442 101.067101,15.1658696 101.104792,15.1991667 C101.172112,15.2672308 101.230371,15.3436952 101.278125,15.4266667 L101.548958,15.884375 L101.278125,15.884375 L101.069583,15.5322917 C101.007292,15.4320833 100.955833,15.3535417 100.917917,15.299375 C100.887544,15.2580449 100.852052,15.2207334 100.812292,15.1883333 C100.783594,15.1676206 100.751522,15.1520425 100.7175,15.1422917 C100.678776,15.138436 100.639765,15.138436 100.601042,15.1422917 L100.357292,15.1422917 L100.357292,15.8925 L100.162292,15.884375 Z M100.370833,14.941875 L100.820417,14.941875 C100.896703,14.9448479 100.972888,14.933833 101.045208,14.909375 C101.096336,14.8898956 101.139316,14.8536016 101.167083,14.8064583 C101.241973,14.6964948 101.225903,14.5484209 101.129167,14.4570833 C101.055507,14.4013006 100.964014,14.3743341 100.871875,14.38125 L100.370833,14.38125 L100.370833,14.941875 Z" id="Shape"></path>
                    </g>
                    <g id="🎨icon-color/black" transform="translate(0.000000, 3.000000)">
                        <mask id="mask-2" fill="white">
                            <use xlink:href="#path-1"></use>
                        </mask>
                        <use id="Mask" fill="#FFFFFF" fill-rule="nonzero" xlink:href="#path-1"></use>
                        <g id="🎨icon-color/black-🎨icon-color/white" mask="url(#mask-2)" fill="#FFFFFF">
                            <g transform="translate(0.000000, -3.000000)" id="Icon-Shade">
                                <rect x="0" y="0" width="143" height="29"></rect>
                            </g>
                        </g>
                    </g>
                </g>
            </g>
        </g>
    </g>
</svg>